<svg width="2091" height="930" viewBox="0 0 2091 930" fill="none" xmlns="http://www.w3.org/2000/svg">
<path d="M537.747 114C561.095 114 583.466 123.377 599.836 140.024L757.915 300.783C773.93 317.069 782.904 338.996 782.904 361.837V631.68C782.904 679.772 743.918 718.758 695.826 718.758H627.238L676.854 659.244C681.581 653.574 677.551 644.963 670.169 644.96L559.826 644.916C550.211 644.912 542.418 637.116 542.418 627.5V358.743C542.418 329.15 529.87 300.944 507.89 281.13L415.492 197.839C409.89 192.789 400.954 196.764 400.954 204.307V621.053C400.954 647.191 413.986 671.61 435.701 686.159C437.13 687.117 437.277 689.163 435.999 690.314L404.437 718.758H251.078C202.986 718.758 164 679.772 164 631.68V361.837C164 338.996 172.975 317.069 188.989 300.783L347.068 140.024C363.439 123.377 385.809 114 409.157 114H537.747Z" fill="white"/>
<path d="M1853.73 678.362C1811.3 678.362 1779.72 668.987 1759 650.239C1738.77 631.49 1728.66 602.134 1728.66 562.17V374.93V295.742V184.731H1818.95V295.742H1925.52V374.93H1818.95V550.328C1818.95 567.597 1823.14 579.931 1831.53 587.332C1839.92 594.24 1853.73 597.693 1872.97 597.693C1891.72 597.693 1909.73 595.72 1927 591.773V668C1904.3 674.908 1879.88 678.362 1853.73 678.362Z" fill="white"/>
<path d="M1673.85 594.733V672.441H1364.5V609.535L1557.66 373.451H1370.42V295.743H1671.63V358.649L1478.47 594.733H1673.85Z" fill="white"/>
<path d="M1253.94 232.838C1236.67 232.838 1222.61 227.658 1211.76 217.297C1201.4 206.442 1196.22 192.874 1196.22 176.592C1196.22 160.311 1201.4 146.989 1211.76 136.628C1222.61 125.774 1236.67 120.347 1253.94 120.347C1270.72 120.347 1284.28 125.774 1294.65 136.628C1305.5 146.989 1310.93 160.311 1310.93 176.592C1310.93 192.874 1305.5 206.442 1294.65 217.297C1284.28 227.658 1270.72 232.838 1253.94 232.838ZM1208.8 295.745H1299.09V672.443H1208.8V295.745Z" fill="white"/>
<path d="M1136.5 585.112V672.441H1004.94C967.558 672.441 937.255 642.138 937.255 604.758V154.388H1031.25V568.191C1031.25 577.537 1038.82 585.112 1048.17 585.112H1136.5Z" fill="white"/>
</svg>
